HIERARCHY
ROOT joint_Root
{
	OFFSET 0.0 0.0 0.0
	CHANNELS 6 Xposition Yposition Zposition Zrotation Xrotation Yrotation 
	JOINT Hips
	{
		OFFSET 4.5925 91.4895 -427.239
		CHANNELS 6 Xposition Yposition Zposition Zrotation Xrotation Yrotation 
		JOINT Spine
		{
			OFFSET 15.7357 0.0 0.0
			CHANNELS 6 Xposition Yposition Zposition Zrotation Xrotation Yrotation 
			JOINT Chest
			{
				OFFSET 8.98455 -0.406207 0.0
				CHANNELS 6 Xposition Yposition Zposition Zrotation Xrotation Yrotation 
				JOINT Neck
				{
					OFFSET 16.3773 0.0 0.0
					CHANNELS 6 Xposition Yposition Zposition Zrotation Xrotation Yrotation 
					JOINT Head
					{
						OFFSET 6.45672 0.0 0.0
						CHANNELS 6 Xposition Yposition Zposition Zrotation Xrotation Yrotation 
						End Site
						{
							OFFSET 0.0 0.0 0.0
						}
					}
				}
				JOINT Shoulder_L
				{
					OFFSET 12.9942 -0.242716 4.98039
					CHANNELS 6 Xposition Yposition Zposition Zrotation Xrotation Yrotation 
					JOINT UpperArm_L
					{
						OFFSET 5.34809 0.0 0.0
						CHANNELS 6 Xposition Yposition Zposition Zrotation Xrotation Yrotation 
						JOINT LowerArm_L
						{
							OFFSET 24.3286 1.87007e-05 0.0
							CHANNELS 6 Xposition Yposition Zposition Zrotation Xrotation Yrotation 
							JOINT Hand_L
							{
								OFFSET 22.2916 0.0 0.0
								CHANNELS 6 Xposition Yposition Zposition Zrotation Xrotation Yrotation 
								End Site
								{
									OFFSET 0.0 0.0 0.0
								}
							}
						}
					}
				}
				JOINT Shoulder_R
				{
					OFFSET 12.9945 -0.242716 -4.98039
					CHANNELS 6 Xposition Yposition Zposition Zrotation Xrotation Yrotation 
					JOINT UpperArm_R
					{
						OFFSET -5.34813 0.0 0.0
						CHANNELS 6 Xposition Yposition Zposition Zrotation Xrotation Yrotation 
						JOINT LowerArm_R
						{
							OFFSET -24.3289 0.000322201 0.0
							CHANNELS 6 Xposition Yposition Zposition Zrotation Xrotation Yrotation 
							JOINT Hand_R
							{
								OFFSET -22.2915 -0.000108084 0.0
								CHANNELS 6 Xposition Yposition Zposition Zrotation Xrotation Yrotation 
								End Site
								{
									OFFSET 0.0 0.0 0.0
								}
							}
						}
					}
				}
			}
		}
		JOINT UpperLeg_L
		{
			OFFSET -2.19248 -6.46944 0.0
			CHANNELS 6 Xposition Yposition Zposition Zrotation Xrotation Yrotation 
			JOINT LowerLeg_L
			{
				OFFSET 39.0811 0.0 -1.23785e-05
				CHANNELS 6 Xposition Yposition Zposition Zrotation Xrotation Yrotation 
				JOINT Foot_L
				{
					OFFSET 40.9854 0.0 -1.26872e-05
					CHANNELS 6 Xposition Yposition Zposition Zrotation Xrotation Yrotation 
					JOINT Toes_L
					{
						OFFSET 11.7543 0.0 0.0
						CHANNELS 6 Xposition Yposition Zposition Zrotation Xrotation Yrotation 
						End Site
						{
							OFFSET 0.0 0.0 0.0
						}
					}
				}
			}
		}
		JOINT UpperLeg_R
		{
			OFFSET -2.19251 6.46944 0.0
			CHANNELS 6 Xposition Yposition Zposition Zrotation Xrotation Yrotation 
			JOINT LowerLeg_R
			{
				OFFSET -39.0811 -0.00228153 -0.0401928
				CHANNELS 6 Xposition Yposition Zposition Zrotation Xrotation Yrotation 
				JOINT Foot_R
				{
					OFFSET -40.9854 0.0 0.0
					CHANNELS 6 Xposition Yposition Zposition Zrotation Xrotation Yrotation 
					JOINT Toes_R
					{
						OFFSET -11.7543 0.0 0.0
						CHANNELS 6 Xposition Yposition Zposition Zrotation Xrotation Yrotation 
						End Site
						{
							OFFSET 0.0 0.0 0.0
						}
					}
				}
			}
		}
	}
}
MOTION
Frames:	4
Frame Time:	0.0333333
0.000000 0.000000 0.000000 0.000000 0.000000 -0.000000 2.717950 89.492600 528.043000 -87.016000 -1.946220 179.862000 15.735700 0.000005 -0.000001 81.932200 81.201000 -81.340100 8.984550 -0.406207 -0.000000 9.677190 -2.445250 1.390390 16.377300 -0.000001 -0.000001 2.736260 -2.753120 0.270273 6.456720 -0.000001 -0.000000 -6.090540 -1.940840 0.035537 12.994200 -0.242716 4.980390 -90.935400 3.719130 -75.871700 5.348090 -0.000007 -0.000001 -60.214000 22.847300 -26.207800 24.328600 0.000019 0.000005 14.320600 18.038400 -39.502200 22.291600 -0.000001 0.000005 13.667600 5.218270 2.257040 12.994500 -0.242716 -4.980390 88.355200 9.497800 -80.128400 -5.348130 -0.000001 -0.000004 -64.419000 26.957200 -5.660940 -24.328900 0.000322 -0.000009 3.386470 6.991840 -25.932200 -22.291500 -0.000108 -0.000004 15.748400 5.401040 -2.972020 -2.192480 -6.469440 -0.000000 -174.729000 -13.866000 -1.696140 39.081100 -0.000007 -0.000012 -0.001429 0.002304 31.819200 40.985400 -0.000006 -0.000013 4.008230 4.977190 -77.690600 11.754300 -0.000000 0.000003 -1.469380 -1.853950 -16.871700 -2.192510 6.469440 -0.000001 -170.944000 21.370300 153.321000 -39.081100 -0.002282 -0.040193 0.005577 -0.003691 31.687200 -40.985400 0.000008 0.000006 6.765680 2.400150 -57.865700 -11.754300 -0.000006 -0.000006 -0.008370 -0.091023 -20.280000
0.000000 0.000000 0.000000 0.000000 0.000000 -0.000000 2.878500 89.393000 526.032000 -87.330000 -2.131530 -179.991000 15.735700 0.000005 -0.000001 82.506100 81.224700 -81.740500 8.984550 -0.406207 -0.000000 9.655900 -2.262790 1.721490 16.377300 -0.000001 -0.000001 2.734030 -2.764150 0.357140 6.456720 -0.000001 -0.000000 -5.986450 -1.932890 -0.044572 12.994200 -0.242716 4.980390 -90.928100 3.670790 -75.800900 5.348090 -0.000007 -0.000001 -60.769000 22.851600 -25.449400 24.328600 0.000019 0.000005 14.692700 17.533400 -41.035100 22.291600 -0.000001 0.000005 13.838000 5.229710 1.963280 12.994500 -0.242716 -4.980390 88.382100 9.427600 -80.216600 -5.348130 -0.000001 -0.000004 -63.773400 27.417700 -6.632460 -24.328900 0.000322 -0.000009 3.176110 6.705160 -25.427100 -22.291500 -0.000108 -0.000004 15.926600 5.397760 -2.864810 -2.192480 -6.469440 -0.000000 -174.451000 -13.678100 -2.029890 39.081100 -0.000007 -0.000012 0.008944 -0.012783 34.975100 40.985400 -0.000006 -0.000013 3.387330 5.552260 -76.414700 11.754300 -0.000000 0.000003 -0.004626 -0.057805 -18.928500 -2.192510 6.469440 -0.000001 -172.060000 20.384400 154.011000 -39.081100 -0.002282 -0.040193 -0.097394 0.149469 33.965400 -40.985400 0.000008 0.000006 6.138190 1.608890 -60.284100 -11.754300 -0.000006 -0.000006 -0.007794 -0.086341 -20.088800
0.000000 0.000000 0.000000 0.000000 0.000000 -0.000000 3.136710 89.322300 523.968000 -87.599200 -2.233940 -179.535000 15.735700 0.000005 -0.000001 83.181400 81.131400 -82.282500 8.984550 -0.406207 -0.000000 9.867530 -2.076460 1.975940 16.377300 -0.000001 -0.000001 2.901560 -2.780430 0.535490 6.456720 -0.000001 -0.000000 -5.940810 -1.974380 0.200603 12.994200 -0.242716 4.980390 -90.873300 3.429780 -75.705400 5.348090 -0.000007 -0.000001 -61.518500 23.131100 -24.219300 24.328600 0.000019 0.000005 15.184700 17.324300 -42.347200 22.291600 -0.000001 0.000005 13.999200 5.227560 2.018550 12.994500 -0.242716 -4.980390 88.418700 9.290390 -80.296400 -5.348130 -0.000001 -0.000004 -63.106000 27.947900 -7.889450 -24.328900 0.000322 -0.000009 3.357640 7.169860 -25.183400 -22.291500 -0.000108 -0.000004 15.776600 5.394840 -2.770660 -2.192480 -6.469440 -0.000000 -173.976000 -13.455500 -3.194050 39.081100 -0.000007 -0.000012 0.028813 -0.034472 39.888100 40.985400 -0.000006 -0.000013 2.701400 6.257760 -73.649800 11.754300 -0.000000 0.000003 -0.022785 -0.182264 -24.029100 -2.192510 6.469440 -0.000001 -172.921000 20.391900 155.281000 -39.081100 -0.002282 -0.040193 -0.172383 0.244892 35.653700 -40.985400 0.000008 0.000006 5.811710 1.279970 -62.585500 -11.754300 -0.000006 -0.000006 -0.006564 -0.075879 -19.661700
0.000000 0.000000 0.000000 0.000000 0.000000 -0.000000 3.452410 89.290700 522.017000 -87.997200 -2.285320 -178.872000 15.735700 0.000005 -0.000001 83.978900 80.919400 -83.056600 8.984550 -0.406207 -0.000000 10.314800 -1.871870 2.012380 16.377300 -0.000001 -0.000001 2.982880 -2.879120 0.833213 6.456720 -0.000001 -0.000000 -5.952400 -2.074880 0.456942 12.994200 -0.242716 4.980390 -90.859500 3.380160 -75.723800 5.348090 -0.000007 -0.000001 -61.739200 23.726100 -22.949300 24.328600 0.000019 0.000005 15.190000 16.921600 -43.009100 22.291600 -0.000001 0.000005 13.793800 5.235920 1.801970 12.994500 -0.242716 -4.980390 88.406100 9.406160 -80.337700 -5.348130 -0.000001 -0.000004 -62.178500 28.195900 -9.312170 -24.328900 0.000322 -0.000009 3.451520 7.285790 -25.441800 -22.291500 -0.000108 -0.000004 15.777200 5.392400 -2.691850 -2.192480 -6.469440 -0.000000 -173.749000 -12.343100 -5.737870 39.081100 -0.000007 -0.000012 0.061881 -0.058341 46.684900 40.985400 -0.000006 -0.000013 1.133930 6.529770 -68.901400 11.754300 -0.000000 0.000003 -0.042357 -0.269383 -27.649600 -2.192510 6.469440 -0.000001 -173.827000 20.528900 156.944000 -39.081100 -0.002282 -0.040193 -0.209835 0.284702 36.818000 -40.985400 0.000008 0.000006 5.648920 1.158760 -64.603100 -11.754300 -0.000006 -0.000006 -0.005327 -0.064590 -19.201400
